<svg width="27" height="29" viewBox="0 0 27 29" fill="none" xmlns="http://www.w3.org/2000/svg">
<path d="M26.1665 25.5V5.66667C26.1665 4.10408 24.8958 2.83333 23.3332 2.83333H20.4998V0H17.6665V2.83333H9.1665V0H6.33317V2.83333H3.49984C1.93725 2.83333 0.666504 4.10408 0.666504 5.66667V25.5C0.666504 27.0626 1.93725 28.3333 3.49984 28.3333H23.3332C24.8958 28.3333 26.1665 27.0626 26.1665 25.5ZM9.1665 22.6667H6.33317V19.8333H9.1665V22.6667ZM9.1665 17H6.33317V14.1667H9.1665V17ZM14.8332 22.6667H11.9998V19.8333H14.8332V22.6667ZM14.8332 17H11.9998V14.1667H14.8332V17ZM20.4998 22.6667H17.6665V19.8333H20.4998V22.6667ZM20.4998 17H17.6665V14.1667H20.4998V17ZM23.3332 9.91667H3.49984V7.08333H23.3332V9.91667Z" fill="white"/>
</svg>
