<svg width="27" height="29" viewBox="0 0 27 29" fill="none" xmlns="http://www.w3.org/2000/svg">
<path d="M6.33301 12.75H9.16634V15.5833H6.33301V12.75ZM6.33301 18.4167H9.16634V21.25H6.33301V18.4167ZM11.9997 12.75H14.833V15.5833H11.9997V12.75ZM11.9997 18.4167H14.833V21.25H11.9997V18.4167ZM17.6663 12.75H20.4997V15.5833H17.6663V12.75ZM17.6663 18.4167H20.4997V21.25H17.6663V18.4167Z" fill="#8A8A8A"/>
<path d="M3.49984 28.3333H23.3332C24.8958 28.3333 26.1665 27.0626 26.1665 25.5V5.66667C26.1665 4.10408 24.8958 2.83333 23.3332 2.83333H20.4998V0H17.6665V2.83333H9.1665V0H6.33317V2.83333H3.49984C1.93725 2.83333 0.666504 4.10408 0.666504 5.66667V25.5C0.666504 27.0626 1.93725 28.3333 3.49984 28.3333ZM23.3332 8.5L23.3346 25.5H3.49984V8.5H23.3332Z" fill="#8A8A8A"/>
</svg>
