<svg width="30" height="22" viewBox="0 0 30 22" fill="none" xmlns="http://www.w3.org/2000/svg">
<path d="M19.0909 13.6364C15.45 13.6364 8.18182 15.45 8.18182 19.0909V21.8182H30V19.0909C30 15.45 22.7318 13.6364 19.0909 13.6364ZM6.81818 8.18182V4.09091H4.09091V8.18182H0V10.9091H4.09091V15H6.81818V10.9091H10.9091V8.18182H6.81818ZM19.0909 10.9091C20.5375 10.9091 21.9249 10.3344 22.9479 9.31149C23.9708 8.28857 24.5455 6.90118 24.5455 5.45455C24.5455 4.00791 23.9708 2.62052 22.9479 1.5976C21.9249 0.574673 20.5375 0 19.0909 0C17.6443 0 16.2569 0.574673 15.234 1.5976C14.211 2.62052 13.6364 4.00791 13.6364 5.45455C13.6364 6.90118 14.211 8.28857 15.234 9.31149C16.2569 10.3344 17.6443 10.9091 19.0909 10.9091Z" fill="white"/>
</svg>
