<svg width="30" height="22" viewBox="0 0 30 22" fill="none" xmlns="http://www.w3.org/2000/svg">
<path d="M19.0909 0C17.6443 0 16.2569 0.574673 15.234 1.5976C14.211 2.62052 13.6364 4.00791 13.6364 5.45455C13.6364 6.90118 14.211 8.28857 15.234 9.31149C16.2569 10.3344 17.6443 10.9091 19.0909 10.9091C20.5375 10.9091 21.9249 10.3344 22.9479 9.31149C23.9708 8.28857 24.5455 6.90118 24.5455 5.45455C24.5455 4.00791 23.9708 2.62052 22.9479 1.5976C21.9249 0.574673 20.5375 0 19.0909 0ZM19.0909 2.59091C19.467 2.59091 19.8393 2.66498 20.1868 2.80889C20.5342 2.9528 20.8499 3.16374 21.1158 3.42965C21.3817 3.69556 21.5927 4.01125 21.7366 4.35868C21.8805 4.70611 21.9545 5.07849 21.9545 5.45455C21.9545 5.8306 21.8805 6.20298 21.7366 6.55041C21.5927 6.89784 21.3817 7.21353 21.1158 7.47944C20.8499 7.74536 20.5342 7.95629 20.1868 8.1002C19.8393 8.24411 19.467 8.31818 19.0909 8.31818C18.7149 8.31818 18.3425 8.24411 17.995 8.1002C17.6476 7.95629 17.3319 7.74536 17.066 7.47944C16.8001 7.21353 16.5892 6.89784 16.4453 6.55041C16.3013 6.20298 16.2273 5.8306 16.2273 5.45455C16.2273 4.69506 16.529 3.96668 17.066 3.42965C17.603 2.89261 18.3314 2.59091 19.0909 2.59091ZM4.09091 4.09091V8.18182H0V10.9091H4.09091V15H6.81818V10.9091H10.9091V8.18182H6.81818V4.09091H4.09091ZM19.0909 12.2727C15.45 12.2727 8.18182 14.0864 8.18182 17.7273V21.8182H30V17.7273C30 14.0864 22.7318 12.2727 19.0909 12.2727ZM19.0909 14.8636C23.1409 14.8636 27.4091 16.8545 27.4091 17.7273V19.2273H10.7727V17.7273C10.7727 16.8545 15 14.8636 19.0909 14.8636Z" fill="#8A8A8A"/>
</svg>
