<svg width="80" height="66" viewBox="0 0 80 66" fill="none" xmlns="http://www.w3.org/2000/svg">
<path fill-rule="evenodd" clip-rule="evenodd" d="M52.2519 0.0591608C52.1299 0.0866027 51.8003 0.182235 51.5195 0.271768C51.2387 0.3613 50.6963 0.48465 50.3143 0.546186C49.9321 0.607723 49.4384 0.749089 49.2172 0.860242C48.9957 0.971673 48.6151 1.09835 48.3712 1.14242C48.1273 1.18622 47.778 1.31373 47.5951 1.42599C47.4121 1.53825 47.0268 1.68932 46.7391 1.76167C46.4514 1.83402 46.1584 1.96263 46.088 2.04718C46.0178 2.132 45.9011 2.20129 45.8293 2.20129C45.7573 2.20129 45.4515 2.32215 45.15 2.46989C44.8481 2.61763 44.4268 2.8186 44.2133 2.91645C43.9999 3.01429 43.5259 3.26654 43.16 3.4772C42.7941 3.68759 42.37 3.92126 42.2176 3.99638C42.0651 4.0715 41.8079 4.23476 41.6463 4.35895C41.4844 4.4834 41.0944 4.73482 40.7792 4.91776C40.464 5.10071 39.8972 5.47492 39.5197 5.74934C39.1421 6.02375 38.6235 6.38494 38.3676 6.5518C38.1115 6.71867 37.5635 7.14666 37.1494 7.50229C36.7353 7.85821 36.1471 8.33913 35.8422 8.57059C34.2655 9.76888 29.6092 14.656 28.7056 16.0608C28.6078 16.2133 28.2773 16.6734 27.9716 17.0837C27.0547 18.3133 26.7303 18.7984 25.9187 20.1555C25.7663 20.4102 25.4918 20.8208 25.3086 21.0675L24.976 21.516L21.2616 21.5495C18.3545 21.5756 17.3909 21.6207 16.8269 21.7571C16.4305 21.853 15.6133 22.0096 15.0107 22.1053C14.4081 22.2009 13.7345 22.3547 13.5139 22.4476C13.2932 22.5402 12.8131 22.6835 12.4472 22.7661C11.5491 22.9687 10.4506 23.3468 9.82668 23.6683C9.54395 23.8139 9.23876 23.9331 9.14867 23.9331C9.05831 23.9331 8.86566 24.0259 8.72013 24.1396C8.57461 24.2532 8.33096 24.3829 8.1785 24.4278C8.02605 24.4728 7.71421 24.6294 7.48553 24.7757C7.25684 24.9221 6.88263 25.1582 6.65395 25.3007C5.30902 26.1378 4.78652 26.5547 3.63534 27.709C2.93239 28.4136 2.24384 29.162 2.10497 29.3721C1.46133 30.3456 1.30417 30.6009 1.30417 30.6738C1.30417 30.7168 1.15947 31.0513 0.982349 31.4172C-0.0318932 33.5131 -0.293008 36.3429 0.350352 38.2672C0.509183 38.7417 0.638908 39.1982 0.638908 39.2817C0.638908 39.3651 0.779722 39.7008 0.95158 40.0279C1.12372 40.355 1.29807 40.7217 1.33909 40.8428C1.46272 41.209 2.70481 43.0323 3.15913 43.5144C3.32517 43.6909 3.65253 44.0538 3.8862 44.321C4.42977 44.9422 6.49124 46.6627 6.69193 46.6627C6.7396 46.6627 6.89428 46.7716 7.0362 46.905C7.40209 47.2487 8.84487 48.1199 9.95253 48.6657C10.4709 48.9213 11.0765 49.2237 11.298 49.3379C11.5198 49.4521 11.7745 49.5455 11.8638 49.5455C11.953 49.5455 12.2557 49.6675 12.5359 49.8166C12.8165 49.9657 13.235 50.1232 13.4659 50.1664C13.6968 50.2099 14.1359 50.3618 14.4416 50.504C14.7474 50.6465 15.108 50.7635 15.2435 50.764C15.3788 50.7646 15.8528 50.8827 16.2969 51.0265C16.7407 51.1701 17.3785 51.3228 17.7139 51.3658C18.0493 51.4085 18.6918 51.5396 19.142 51.6571C21.2048 52.1952 28.7167 52.1977 30.81 51.661C31.2605 51.5454 32.041 51.3974 32.5447 51.332C33.0486 51.2666 33.5975 51.1432 33.7643 51.0581C33.9315 50.9728 34.3317 50.8472 34.6538 50.779C34.9759 50.7108 35.4355 50.555 35.675 50.4328C35.9145 50.3108 36.1695 50.2108 36.2416 50.2108C36.3904 50.2108 39.0764 48.8805 39.6704 48.5127C39.8855 48.3794 40.227 48.1706 40.4294 48.0487C40.6317 47.9267 40.9741 47.6897 41.19 47.522C41.4059 47.3543 41.6221 47.2171 41.6704 47.2171C41.7186 47.2171 41.845 47.1298 41.9509 47.0231C42.0568 46.9163 42.2552 46.7542 42.3916 46.6627C43.6526 45.8176 47.8318 41.9341 48.4327 41.0493C48.5209 40.9193 49.0919 40.2114 49.7017 39.4757C50.8024 38.148 51.6553 37.012 51.9747 36.4493C52.2291 36.0008 52.847 35.5185 52.9207 35.7109C52.9534 35.796 52.9645 40.5279 52.9457 46.2259C52.9091 57.1339 52.8597 58.2997 52.348 60.3559C52.2571 60.7218 52.0941 61.4203 51.9863 61.9082C51.8785 62.3961 51.713 62.9449 51.6185 63.1279C51.5242 63.3108 51.4103 63.6351 51.3657 63.8485C51.3208 64.062 51.1924 64.4409 51.0802 64.6907C50.6259 65.7013 51.5614 66.4622 52.0393 65.4704C52.131 65.2797 52.3414 64.8916 52.5063 64.6081C52.6713 64.3245 52.9221 63.8829 53.0635 63.6268C53.4391 62.9474 55.3683 61.0531 55.9851 60.7584C56.2697 60.6226 56.5627 60.4388 56.6362 60.3504C56.7094 60.262 56.8186 60.1896 56.8785 60.1896C56.9383 60.1896 57.2225 60.0715 57.5096 59.9274C58.1563 59.6025 60.098 59.0942 61.0019 59.013C62.491 58.8793 62.6313 57.9704 61.1979 57.7437C60.4689 57.6284 59.6961 57.0321 59.5065 56.439C59.435 56.215 59.3327 55.9844 59.2792 55.9264C59.2254 55.8685 59.1816 54.5643 59.1816 53.0278V50.2349L59.463 50.1642C59.7701 50.0871 60.5748 50.2645 60.6785 50.4322C60.7139 50.4899 60.9762 50.6401 61.2614 50.7662C61.5464 50.8924 61.8061 51.031 61.8388 51.0745C61.8715 51.1177 62.1961 51.3528 62.56 51.5967C63.8251 52.4441 65.3594 53.8287 65.908 54.6181C66.2284 55.0788 67.1969 54.597 68.2757 53.4406C68.3683 53.3411 68.6677 53.0655 68.941 52.828C70.2302 51.7068 72.5985 49.3079 73.5956 48.1133C73.87 47.7845 74.196 47.4108 74.3199 47.2831C74.4438 47.1553 74.6342 46.9102 74.7431 46.7384C74.8518 46.5668 75.0134 46.3423 75.1018 46.2394C75.5384 45.7325 75.924 45.2418 75.924 45.1925C75.924 45.1077 76.6721 43.885 76.8478 43.6821C77.0178 43.4861 77.2293 43.1072 77.5971 42.3385C77.7288 42.0641 77.8987 41.7647 77.9749 41.6733C78.0511 41.5818 78.177 41.3074 78.2546 41.0635C78.3319 40.8195 78.4838 40.5063 78.5919 40.3671C78.7 40.2283 78.8223 39.904 78.8636 39.6465C78.9052 39.3892 79.0108 39.0652 79.0989 38.9266C79.1868 38.788 79.3096 38.3888 79.3714 38.0396C79.4335 37.6903 79.5926 37.1052 79.7251 36.7393C80.0904 35.7311 80.0921 30.6591 79.7273 29.6432C79.5962 29.2773 79.4346 28.7113 79.3683 28.3853C79.3021 28.0593 79.1738 27.6865 79.0828 27.5568C78.9919 27.4271 78.9176 27.2219 78.9176 27.1011C78.9176 26.9126 78.5501 26.122 77.6572 24.3901C77.5433 24.1692 77.4136 23.9636 77.369 23.9331C77.3243 23.9026 77.2284 23.7651 77.1561 23.6276C76.9596 23.2548 75.9935 21.9647 75.3959 21.2776C74.7952 20.5865 74.4113 20.1987 73.2557 19.1144C72.8034 18.69 72.3141 18.201 72.1686 18.0281L71.9039 17.7134L72.1326 17.4692C73.0911 16.4459 72.2129 15.6936 71.1898 16.6618C70.5714 17.2469 69.0366 18.4023 67.7164 19.2763C67.486 19.4287 67.0306 19.732 66.7046 19.9498C66.3783 20.168 65.9867 20.4283 65.8342 20.5286C65.6818 20.6289 65.3575 20.861 65.1135 21.0445C64.8696 21.228 64.5544 21.4292 64.4131 21.4916C64.2717 21.5539 63.9973 21.7172 63.8032 21.8544C63.6092 21.9919 63.3697 22.154 63.2713 22.2148C61.9253 23.046 61.0948 23.7942 60.7261 24.5077C60.6103 24.7322 60.4653 24.9467 60.4043 24.9844C60.3433 25.0221 60.2122 25.3376 60.113 25.6849C60.014 26.0325 59.8386 26.4724 59.7235 26.6626C59.45 27.1147 59.4186 28.8161 59.6803 29.0331C59.7715 29.1088 59.9204 29.4203 60.0107 29.725C60.1737 30.2741 60.8362 31.3853 61.0998 31.5522C61.1749 31.5999 61.3728 31.805 61.5397 32.0079L61.8427 32.3766V39.3382V46.2996L61.5173 46.709C61.0147 47.3413 60.1776 47.9073 59.542 48.0442L59.1816 48.1218L59.1725 32.3408C59.1672 23.6611 59.1265 15.2625 59.0813 13.677C58.9873 10.3615 58.9535 10.6365 59.4879 10.3507C60.8731 9.6095 61.336 5.45828 60.2738 3.30119C59.4436 1.61586 58.1793 0.648747 56.0771 0.0918704C55.6918 -0.0101359 52.6765 -0.0359157 52.2519 0.0591608ZM55.8814 1.57567C58.2275 2.17108 59.1947 3.16703 59.7388 5.5481C60.0016 6.69872 60.0088 6.55873 59.5802 8.67065C59.341 9.8501 58.8562 9.82238 58.4523 8.60634C57.6549 6.20559 55.2245 4.84292 52.8595 5.47076C52.4642 5.57554 51.9514 5.70693 51.7197 5.76264C51.3294 5.85633 50.5288 6.21197 49.868 6.58507C49.7156 6.67127 49.3913 6.84313 49.1473 6.96759C48.9034 7.09177 48.5234 7.32988 48.3024 7.49702C48.0818 7.66389 47.508 8.08328 47.0274 8.42894C46.119 9.08228 43.565 11.5241 42.5823 12.6791C40.7035 14.8872 40.3468 15.3631 38.6265 17.9579C38.2066 18.5916 37.7733 19.2405 37.6641 19.3999C37.5546 19.5593 37.3847 19.8586 37.2863 20.0651C37.1879 20.2716 36.9642 20.6899 36.7893 20.9948C36.3647 21.7352 35.993 22.4232 35.6351 23.1325C35.1705 24.0528 34.9698 24.0888 33.5138 23.5142C32.4477 23.0934 31.8878 22.9216 30.7141 22.6549C30.4114 22.5862 30.3596 21.8938 30.631 21.5426C30.7224 21.4242 30.8973 21.1279 31.0196 20.884C31.3605 20.2026 33.131 17.4856 33.909 16.4489C34.2214 16.0328 34.627 15.4627 35.0106 14.9002C35.1021 14.7661 35.2639 14.5698 35.3707 14.4639C35.4771 14.3583 36.0354 13.6889 36.6108 12.9765C38.7474 10.3324 42.4415 6.79462 44.7677 5.16502C44.9202 5.0583 45.2387 4.83405 45.4754 4.66718C46.3097 4.07871 46.8245 3.7555 47.3733 3.47554C47.6782 3.32004 48.2021 3.047 48.5375 2.86877C48.8729 2.69026 49.3779 2.47183 49.6599 2.38313C49.9418 2.29443 50.3318 2.1392 50.5269 2.0383C50.722 1.93741 51.2897 1.78273 51.7887 1.69486C52.2873 1.607 52.8451 1.48974 53.028 1.43431C53.6434 1.24776 54.8184 1.30597 55.8814 1.57567ZM54.3968 6.48334C55.0107 6.60613 55.8925 7.57214 56.2567 8.52125L56.576 9.35282L56.5716 12.1802C56.5675 14.6779 56.5392 15.1239 56.3291 16.0054C56.198 16.5542 56.058 17.3027 56.0178 17.6685C55.9776 18.0344 55.8692 18.5084 55.7772 18.7219C55.6852 18.9353 55.5435 19.3519 55.4626 19.6477C55.3813 19.9435 55.2433 20.2678 55.1557 20.3684C55.0681 20.469 54.9365 20.7376 54.8633 20.9655C54.7904 21.1933 54.682 21.4095 54.6232 21.4461C54.5642 21.4827 54.4001 21.6953 54.2584 21.919C53.6783 22.8348 52.7547 23.7052 51.3194 24.6892C50.2874 25.3966 47.2436 25.4119 46.3566 24.7142C46.198 24.5894 46.0126 24.4869 45.9447 24.4863C45.7789 24.4847 44.9191 23.6714 44.3849 23.0111C43.1381 21.4697 43.3235 18.6983 44.7594 17.4133C45.7822 16.4977 46.1803 16.338 47.4387 16.338H48.6173L49.2704 16.7965C51.2717 18.2013 51.2986 20.6572 49.3236 21.6925C48.5173 22.1152 48.3482 22.0404 48.6002 21.3729C49.0262 20.2453 48.8391 19.5396 47.9693 18.9902C46.4932 18.0586 44.9581 20.0069 45.9776 21.5176C47.8459 24.2859 52.1291 22.4603 51.9528 18.9708C51.8519 16.9722 50.5555 15.5242 48.3523 14.9496L47.3511 14.6882L46.3125 14.9479C41.3585 16.1861 40.357 22.6436 44.6244 25.8304C44.9421 26.0674 45.2503 26.2615 45.3093 26.2615C45.3687 26.2615 45.4967 26.341 45.594 26.4383C45.9846 26.8289 47.7594 27.3314 49.0157 27.4074C51.5522 27.5607 52.7103 28.9147 51.6395 30.4748C51.535 30.6272 51.4123 30.8767 51.3665 31.0291C51.2329 31.4763 49.7391 34.4256 48.9799 35.7414C48.8039 36.0463 48.5569 36.4953 48.4313 36.7393C48.3055 36.9832 48.0552 37.4073 47.8747 37.6817C47.6946 37.9561 47.4429 38.3711 47.3156 38.6037C46.8985 39.3662 46.6834 38.9903 46.6609 37.46C46.6534 36.9416 46.5999 36.3429 46.5417 36.1295C46.4838 35.916 46.3355 35.3711 46.2119 34.9181C46.0885 34.4655 45.9205 33.9915 45.8388 33.8648C45.7567 33.7384 45.6539 33.4851 45.6098 33.3021C45.5657 33.1192 45.4158 32.7949 45.2764 32.5814C43.7014 30.1687 43.1389 29.4966 41.6077 28.1954C40.9979 27.6774 40.3992 27.1648 40.2772 27.0564C39.8869 26.7102 38.0882 25.5962 37.9194 25.5962C37.3917 25.5962 37.2223 24.5673 37.6503 23.9597C37.7681 23.7925 37.9022 23.5311 37.9488 23.3787C37.9954 23.2262 38.1198 22.9768 38.2254 22.8243C38.3311 22.6718 38.5243 22.3226 38.6548 22.0482C38.7854 21.7737 39.0373 21.2997 39.2147 20.9948C39.3921 20.6899 39.6186 20.2908 39.7181 20.1078C41.0514 17.6563 43.5489 14.1003 45.2861 12.1802C46.3286 11.0282 48.5042 8.96004 49.1105 8.54564C49.3136 8.40649 49.6546 8.17171 49.868 8.02369C50.0815 7.87567 50.4288 7.67581 50.64 7.57935C50.8512 7.48289 51.1007 7.33598 51.1944 7.2531C51.2881 7.16994 51.5395 7.04908 51.7529 6.98478C51.9664 6.92019 52.4154 6.76718 52.7508 6.64466C53.3897 6.41127 53.8238 6.36858 54.3968 6.48334ZM67.1789 23.7848C69.2318 24.2477 71.378 25.941 73.5171 28.785C73.804 29.167 74.0391 29.5218 74.0391 29.5736C74.0391 29.6252 74.171 29.8616 74.3323 30.0989C74.4937 30.3362 74.6738 30.704 74.7329 30.9166C74.7916 31.1289 74.93 31.4175 75.0403 31.5572C75.1503 31.6972 75.2748 32.0157 75.3169 32.2649C75.3591 32.5141 75.5004 32.9492 75.631 33.2317C75.9974 34.0245 75.9916 38.7071 75.6227 39.7884C75.4874 40.1848 75.3299 40.7086 75.2729 40.9526C75.1013 41.6852 74.0105 44.196 73.8021 44.3382C73.7541 44.3709 73.6388 44.5796 73.546 44.8022C73.0368 46.021 70.9983 48.4683 69.9006 49.179C68.235 50.2573 66.0169 49.1741 65.22 46.8928L64.9472 46.1125V39.7335V33.3542L65.3076 33.1319C65.5058 33.0094 65.9257 32.8331 66.2411 32.7402C67.088 32.4899 68.121 31.5888 68.3292 30.9183C68.3766 30.7658 68.5083 30.4673 68.6217 30.2547C69.5514 28.5125 68.0365 26.0289 65.8719 25.7464C64.9982 25.6322 64.9472 25.5779 64.9472 24.7607C64.9472 23.5719 65.3855 23.3803 67.1789 23.7848ZM63.7276 24.4874C64.2473 25.0072 63.7489 27.0745 63.1324 26.9567C62.7749 26.8882 62.669 26.4366 62.7796 25.451C62.8913 24.455 63.2899 24.0498 63.7276 24.4874ZM20.2086 25.4194C20.5745 25.5061 21.1732 25.6128 21.5391 25.6569C22.7169 25.7983 23.0606 26.2565 22.5431 26.9955C22.4549 27.1213 22.3216 27.4692 22.2468 27.7685C22.1719 28.0676 21.9951 28.5621 21.8537 28.8671C21.7124 29.172 21.5962 29.5279 21.5957 29.6576C21.5951 29.7876 21.4762 30.2117 21.3312 30.6001C21.1865 30.9887 21.0341 31.586 20.9928 31.9275C20.9512 32.2693 20.8436 32.7932 20.7538 33.0917C19.7848 36.3055 20.1629 43.9254 21.3925 45.9653C21.946 46.8834 20.6776 46.8351 19.1553 45.8797C19.0638 45.8223 18.7395 45.649 18.4346 45.4949C17.9135 45.231 17.6376 45.0689 16.7093 44.4807C13.3625 42.359 10.7855 39.5076 9.17805 36.1472C8.92997 35.6288 8.56601 34.28 8.37281 33.1635C8.04684 31.2808 9.09268 28.7188 10.7287 27.3932C12.1895 26.2094 13.3487 25.7617 16.2725 25.2533C16.9818 25.13 19.4208 25.2328 20.2086 25.4194ZM61.7872 28.0912C61.7872 29.4536 61.6065 30.0227 61.4396 29.1864C61.2439 28.2068 61.3981 26.4375 61.6564 26.6961C61.7415 26.7815 61.7872 27.2677 61.7872 28.0912ZM66.6542 26.9511C67.7108 27.5113 68.1069 29.437 67.3574 30.3703C66.6359 31.2689 66.0111 31.6944 65.4134 31.6944C64.9225 31.6944 64.7446 30.2411 65.169 29.6986C65.2882 29.5462 65.3868 29.3652 65.3882 29.2964C65.3896 29.2277 65.4656 29.1093 65.557 29.0334C65.8642 28.7784 65.5939 27.5776 65.1706 27.3159C65.1088 27.2776 65.0581 27.1535 65.0581 27.0404C65.0581 26.6229 65.9421 26.5736 66.6542 26.9511ZM28.8927 28.4454C30.0821 29.1315 31.63 30.2037 32.1286 30.6868C32.7046 31.2451 32.7371 31.5106 32.3521 32.5202C31.6563 34.3446 31.7231 41.8601 32.4491 43.4473C32.5746 43.7217 32.6783 44.0405 32.6797 44.1555C32.6827 44.4069 33.5149 46.1726 33.6779 46.2733C34.4692 46.7622 33.9972 47.6301 32.8308 47.8311C32.5965 47.8713 32.0807 48.0035 31.6843 48.1243C31.1269 48.2945 30.6033 48.3486 29.3722 48.3627L27.7812 48.3813L27.4059 47.9378C26.9754 47.4291 26.2514 46.0307 26.2514 45.7081C26.2514 45.5886 26.1535 45.2122 26.0338 44.8718C25.4569 43.2308 25.4583 36.9452 26.0357 34.8472C26.1543 34.4164 26.2514 33.8911 26.2514 33.6796C26.2514 33.4682 26.3267 33.0221 26.4188 32.6887C26.5108 32.3552 26.6641 31.7582 26.7592 31.3618C26.8542 30.9654 27.0267 30.3916 27.1422 30.0867C27.2576 29.7818 27.4064 29.2848 27.4727 28.9824C27.6783 28.0435 27.991 27.9254 28.8927 28.4454ZM63.6591 29.7466C64.0447 30.2522 64.0777 31.1744 63.7173 31.3673C63.1311 31.6811 62.7934 31.2753 62.7896 30.253C62.7859 29.2856 63.1469 29.0752 63.6591 29.7466ZM63.4529 32.888C63.9585 33.2511 63.9593 33.2605 63.9255 39.0064C63.8944 44.3171 63.8892 44.4358 63.661 44.7421C63.3381 45.1761 62.9841 45.2111 62.837 44.8238C62.5969 44.1924 62.7491 33.1441 63.0002 32.9606C63.2447 32.7818 63.294 32.7741 63.4529 32.888ZM35.542 34.1337C35.6462 34.2861 35.9683 34.7299 36.2579 35.1197C36.5476 35.5097 36.7846 35.8847 36.7846 35.9532C36.7846 36.0219 36.9093 36.2617 37.0618 36.4859C37.2143 36.7102 37.339 36.9608 37.339 37.0425C37.339 37.1243 37.4399 37.389 37.5632 37.6304C38.4843 39.4355 38.4824 43.0213 37.5599 44.1943C37.4385 44.3487 37.339 44.5333 37.339 44.6043C37.339 44.7786 36.3322 45.8982 35.787 46.3298C34.8836 47.0455 34.0623 45.7483 33.4353 42.6157C33.2953 41.9166 33.3896 37.5437 33.5559 37.0212C33.623 36.8102 33.7546 36.1117 33.8486 35.4689C34.0557 34.0527 34.1821 33.6367 34.4931 33.347L34.7306 33.1255L35.0416 33.4912C35.2127 33.6921 35.4377 33.9812 35.542 34.1337ZM46.2138 48.513C44.1224 49.6087 45.018 52.6453 47.3922 52.5087C49.3605 52.395 50.0828 50.1853 48.611 48.7807C48.1084 48.3015 46.8796 48.164 46.2138 48.513Z" fill="white"/>
</svg>