<svg width="30" height="29" viewBox="0 0 30 29" fill="none" xmlns="http://www.w3.org/2000/svg">
<path fill-rule="evenodd" clip-rule="evenodd" d="M29.3774 13.9392L16.5914 1.15989L15.7344 0.302856C15.5391 0.108872 15.2751 0 14.9998 0C14.7246 0 14.4605 0.108872 14.2652 0.302856L7.44372 7.12104L0.622228 13.9392C0.422137 14.1385 0.264001 14.3759 0.157156 14.6373C0.0503106 14.8988 -0.00307944 15.1789 0.000137157 15.4614C0.0133731 16.6261 0.982908 17.5559 2.14767 17.5559H3.554V28.3333H13.1468V25.9509V19.2005H16.8528V25.9509V28.3333H26.4456V17.5559H27.8817C28.4476 17.5559 28.9803 17.3342 29.3807 16.9339C29.5779 16.7373 29.7341 16.5037 29.8403 16.2464C29.9465 15.9891 30.0006 15.7132 29.9995 15.4349C29.9995 14.8724 29.7778 14.3396 29.3774 13.9392ZM24.0632 25.9509V15.1735H27.2431L15.7675 3.7045L15.0031 2.94012L2.75984 15.1735H4.34816H5.93647V25.9509H11.029V18.4064C11.029 17.6751 11.6213 17.0828 12.3526 17.0828H17.647C18.3783 17.0828 18.9706 17.6751 18.9706 18.4064V25.9509H24.0632Z" fill="white"/>
<path d="M24.0632 15.1735V25.9509H18.9706V18.4064C18.9706 17.6751 18.3783 17.0828 17.647 17.0828H12.3526C11.6213 17.0828 11.029 17.6751 11.029 18.4064V25.9509H5.93647V15.1735H4.34816H2.75984L15.0031 2.94012L15.7675 3.7045L27.2431 15.1735H24.0632Z" fill="white"/>
</svg>
