<svg width="30" height="29" viewBox="0 0 30 29" fill="none" xmlns="http://www.w3.org/2000/svg">
<path fill-rule="evenodd" clip-rule="evenodd" d="M16.5914 1.15989L29.3774 13.9392C29.7778 14.3396 29.9995 14.8724 29.9995 15.4349C30.0006 15.7132 29.9465 15.9891 29.8403 16.2464C29.7341 16.5037 29.5779 16.7373 29.3807 16.9339C28.9803 17.3342 28.4476 17.5559 27.8817 17.5559H26.4456V28.3333H16.8528V25.9509V19.2005H13.1468V25.9509V28.3333H3.554V17.5559H2.14768C0.982909 17.5559 0.0133731 16.6261 0.000137157 15.4614C-0.00307944 15.1789 0.0503106 14.8988 0.157156 14.6373C0.264001 14.3759 0.422137 14.1385 0.622228 13.9392L14.2652 0.302856C14.4605 0.108872 14.7246 0 14.9998 0C15.2751 0 15.5391 0.108872 15.7344 0.302856L16.5914 1.15989ZM24.0632 25.9509V15.1735H27.2431L15.7675 3.7045L15.0031 2.94012L2.75984 15.1735H5.93647V25.9509H11.029V18.4064C11.029 17.6751 11.6213 17.0828 12.3526 17.0828H17.647C18.3783 17.0828 18.9706 17.6751 18.9706 18.4064V25.9509H24.0632Z" fill="#8A8A8A"/>
</svg>
